<svg width="681" height="69" viewBox="0 0 681 69" fill="none" xmlns="http://www.w3.org/2000/svg">
<path d="M94.8316 55L113.264 10.2H123.952L142.192 55H132.144L127.6 43.224H109.104L104.496 55H94.8316ZM111.984 35.8H124.784L118.384 19.288L111.984 35.8ZM143.332 55L161.764 10.2H172.452L190.692 55H180.644L176.1 43.224H157.604L152.996 55H143.332ZM160.484 35.8H173.284L166.884 19.288L160.484 35.8ZM194.495 55V10.2H203.775V55H194.495ZM211.932 55V10.2H246.364V18.264H221.212V28.504H237.788V36.312H221.212V46.936H246.62V55H211.932ZM253.182 55V10.2H275.07C278.099 10.2 280.766 10.7973 283.07 11.992C285.417 13.144 287.23 14.7653 288.51 16.856C289.833 18.9467 290.494 21.3573 290.494 24.088C290.494 26.9467 289.705 29.464 288.126 31.64C286.547 33.816 284.435 35.4373 281.79 36.504L291.71 55H281.342L272.574 37.848H262.462V55H253.182ZM262.462 30.232H274.238C276.329 30.232 277.993 29.6773 279.23 28.568C280.51 27.4587 281.15 26.008 281.15 24.216C281.15 22.424 280.51 20.9733 279.23 19.864C277.993 18.7547 276.329 18.2 274.238 18.2H262.462V30.232ZM331.575 55.64C328.247 55.64 325.132 55.064 322.231 53.912C319.329 52.7173 316.791 51.0747 314.615 48.984C312.481 46.8933 310.796 44.4613 309.559 41.688C308.364 38.872 307.767 35.8427 307.767 32.6C307.767 29.3147 308.364 26.2853 309.559 23.512C310.796 20.696 312.503 18.2427 314.679 16.152C316.855 14.0613 319.372 12.44 322.231 11.288C325.132 10.0933 328.247 9.496 331.575 9.496C334.049 9.496 336.439 9.83733 338.743 10.52C341.047 11.2027 343.18 12.1627 345.143 13.4C347.148 14.6373 348.855 16.1307 350.263 17.88L343.991 24.088C342.369 22.0827 340.492 20.568 338.359 19.544C336.268 18.52 334.007 18.008 331.575 18.008C329.569 18.008 327.692 18.392 325.943 19.16C324.193 19.8853 322.679 20.9093 321.399 22.232C320.119 23.512 319.116 25.048 318.391 26.84C317.665 28.5893 317.303 30.5093 317.303 32.6C317.303 34.648 317.665 36.568 318.391 38.36C319.116 40.1093 320.14 41.6453 321.463 42.968C322.785 44.248 324.321 45.2507 326.071 45.976C327.863 46.7013 329.804 47.064 331.895 47.064C334.241 47.064 336.439 46.5733 338.487 45.592C340.535 44.6107 342.348 43.2027 343.927 41.368L350.007 47.384C348.599 49.0907 346.913 50.5627 344.951 51.8C342.988 53.0373 340.855 53.9973 338.551 54.68C336.289 55.32 333.964 55.64 331.575 55.64ZM370.175 55.64C366.847 55.64 363.839 54.872 361.151 53.336C358.463 51.8 356.329 49.7307 354.751 47.128C353.172 44.5253 352.383 41.6027 352.383 38.36C352.383 35.1173 353.151 32.1947 354.687 29.592C356.265 26.9467 358.399 24.856 361.087 23.32C363.817 21.784 366.847 21.016 370.175 21.016C373.503 21.016 376.511 21.784 379.199 23.32C381.929 24.856 384.063 26.9467 385.599 29.592C387.177 32.1947 387.967 35.1173 387.967 38.36C387.967 41.6027 387.177 44.5253 385.599 47.128C384.063 49.7307 381.951 51.8 379.263 53.336C376.575 54.872 373.545 55.64 370.175 55.64ZM370.175 48.024C371.924 48.024 373.481 47.5973 374.847 46.744C376.255 45.8907 377.364 44.7387 378.175 43.288C379.028 41.7947 379.455 40.152 379.455 38.36C379.455 36.5253 379.028 34.8827 378.175 33.432C377.364 31.9813 376.255 30.8293 374.847 29.976C373.481 29.08 371.924 28.632 370.175 28.632C368.468 28.632 366.911 29.08 365.503 29.976C364.095 30.8293 362.985 31.9813 362.175 33.432C361.364 34.8827 360.959 36.5253 360.959 38.36C360.959 40.152 361.364 41.7947 362.175 43.288C362.985 44.7387 364.095 45.8907 365.503 46.744C366.911 47.5973 368.468 48.024 370.175 48.024ZM393.356 55V21.656H402.124V25.368C403.191 23.9173 404.471 22.808 405.964 22.04C407.457 21.272 409.143 20.888 411.02 20.888C412.641 20.9307 413.857 21.1867 414.668 21.656V29.336C414.028 29.0373 413.324 28.824 412.556 28.696C411.788 28.5253 410.999 28.44 410.188 28.44C408.481 28.44 406.924 28.8667 405.516 29.72C404.108 30.5733 402.977 31.7893 402.124 33.368V55H393.356ZM419.481 68.056V21.656H428.121V24.408C430.852 22.2747 434.009 21.208 437.593 21.208C440.75 21.208 443.609 21.976 446.169 23.512C448.729 25.048 450.756 27.1173 452.249 29.72C453.785 32.28 454.553 35.16 454.553 38.36C454.553 41.56 453.785 44.4613 452.249 47.064C450.713 49.624 448.644 51.672 446.041 53.208C443.438 54.7013 440.537 55.448 437.337 55.448C435.673 55.448 434.073 55.2347 432.537 54.808C431.001 54.3387 429.572 53.6773 428.249 52.824V68.056H419.481ZM436.185 48.024C438.02 48.024 439.662 47.5973 441.113 46.744C442.606 45.8907 443.78 44.7387 444.633 43.288C445.486 41.8373 445.913 40.1947 445.913 38.36C445.913 36.5253 445.486 34.8827 444.633 33.432C443.78 31.9387 442.606 30.7867 441.113 29.976C439.662 29.1227 438.02 28.696 436.185 28.696C434.564 28.696 433.07 28.9733 431.705 29.528C430.382 30.04 429.23 30.8293 428.249 31.896V44.888C429.188 45.8693 430.34 46.6373 431.705 47.192C433.113 47.7467 434.606 48.024 436.185 48.024ZM476.112 55.64C472.784 55.64 469.776 54.872 467.088 53.336C464.4 51.8 462.267 49.7307 460.688 47.128C459.109 44.5253 458.32 41.6027 458.32 38.36C458.32 35.1173 459.088 32.1947 460.624 29.592C462.203 26.9467 464.336 24.856 467.024 23.32C469.755 21.784 472.784 21.016 476.112 21.016C479.44 21.016 482.448 21.784 485.136 23.32C487.867 24.856 490 26.9467 491.536 29.592C493.115 32.1947 493.904 35.1173 493.904 38.36C493.904 41.6027 493.115 44.5253 491.536 47.128C490 49.7307 487.888 51.8 485.2 53.336C482.512 54.872 479.483 55.64 476.112 55.64ZM476.112 48.024C477.861 48.024 479.419 47.5973 480.784 46.744C482.192 45.8907 483.301 44.7387 484.112 43.288C484.965 41.7947 485.392 40.152 485.392 38.36C485.392 36.5253 484.965 34.8827 484.112 33.432C483.301 31.9813 482.192 30.8293 480.784 29.976C479.419 29.08 477.861 28.632 476.112 28.632C474.405 28.632 472.848 29.08 471.44 29.976C470.032 30.8293 468.923 31.9813 468.112 33.432C467.301 34.8827 466.896 36.5253 466.896 38.36C466.896 40.152 467.301 41.7947 468.112 43.288C468.923 44.7387 470.032 45.8907 471.44 46.744C472.848 47.5973 474.405 48.024 476.112 48.024ZM499.294 55V21.656H508.062V25.368C509.128 23.9173 510.408 22.808 511.902 22.04C513.395 21.272 515.08 20.888 516.958 20.888C518.579 20.9307 519.795 21.1867 520.606 21.656V29.336C519.966 29.0373 519.262 28.824 518.494 28.696C517.726 28.5253 516.936 28.44 516.126 28.44C514.419 28.44 512.862 28.8667 511.454 29.72C510.046 30.5733 508.915 31.7893 508.062 33.368V55H499.294ZM535.105 55.576C532.716 55.576 530.604 55.1493 528.769 54.296C526.934 53.4 525.505 52.184 524.481 50.648C523.457 49.112 522.945 47.3413 522.945 45.336C522.945 42.136 524.14 39.6613 526.529 37.912C528.961 36.12 532.289 35.224 536.513 35.224C539.414 35.224 542.145 35.672 544.705 36.568V34.136C544.705 32.216 544.108 30.7653 542.913 29.784C541.718 28.8027 539.969 28.312 537.665 28.312C536.257 28.312 534.742 28.5467 533.121 29.016C531.5 29.4427 529.622 30.1253 527.489 31.064L524.289 24.6C526.934 23.4053 529.452 22.5093 531.841 21.912C534.273 21.3147 536.705 21.016 539.137 21.016C543.617 21.016 547.094 22.104 549.569 24.28C552.086 26.4133 553.345 29.4427 553.345 33.368V55H544.705V52.632C543.34 53.656 541.868 54.4027 540.289 54.872C538.71 55.3413 536.982 55.576 535.105 55.576ZM531.265 45.144C531.265 46.424 531.82 47.448 532.929 48.216C534.038 48.9413 535.51 49.304 537.345 49.304C538.796 49.304 540.14 49.1333 541.377 48.792C542.614 48.408 543.724 47.8533 544.705 47.128V42.264C543.638 41.8373 542.529 41.5173 541.377 41.304C540.225 41.0907 538.988 40.984 537.665 40.984C535.66 40.984 534.081 41.368 532.929 42.136C531.82 42.8613 531.265 43.864 531.265 45.144ZM574.852 55.512C571.14 55.512 568.324 54.68 566.404 53.016C564.526 51.3093 563.588 48.8347 563.588 45.592V28.952H556.74V21.656H563.588V13.144L572.356 11.16V21.656H581.892V28.952H572.356V43.8C572.356 45.336 572.697 46.4453 573.38 47.128C574.062 47.768 575.257 48.088 576.964 48.088C577.817 48.088 578.585 48.0453 579.268 47.96C579.993 47.832 580.782 47.6187 581.636 47.32V54.552C580.74 54.8507 579.609 55.0853 578.244 55.256C576.921 55.4267 575.79 55.512 574.852 55.512ZM586.169 55V21.656H594.937V55H586.169ZM590.521 17.688C589.155 17.688 587.982 17.1973 587.001 16.216C586.019 15.2347 585.529 14.0613 585.529 12.696C585.529 11.288 586.019 10.1147 587.001 9.176C587.982 8.19467 589.155 7.704 590.521 7.704C591.929 7.704 593.102 8.19467 594.041 9.176C595.022 10.1147 595.513 11.288 595.513 12.696C595.513 14.0613 595.022 15.2347 594.041 16.216C593.102 17.1973 591.929 17.688 590.521 17.688ZM618.05 55.64C614.722 55.64 611.714 54.872 609.026 53.336C606.338 51.8 604.204 49.7307 602.626 47.128C601.047 44.5253 600.258 41.6027 600.258 38.36C600.258 35.1173 601.026 32.1947 602.562 29.592C604.14 26.9467 606.274 24.856 608.962 23.32C611.692 21.784 614.722 21.016 618.05 21.016C621.378 21.016 624.386 21.784 627.074 23.32C629.804 24.856 631.938 26.9467 633.474 29.592C635.052 32.1947 635.842 35.1173 635.842 38.36C635.842 41.6027 635.052 44.5253 633.474 47.128C631.938 49.7307 629.826 51.8 627.138 53.336C624.45 54.872 621.42 55.64 618.05 55.64ZM618.05 48.024C619.799 48.024 621.356 47.5973 622.722 46.744C624.13 45.8907 625.239 44.7387 626.05 43.288C626.903 41.7947 627.33 40.152 627.33 38.36C627.33 36.5253 626.903 34.8827 626.05 33.432C625.239 31.9813 624.13 30.8293 622.722 29.976C621.356 29.08 619.799 28.632 618.05 28.632C616.343 28.632 614.786 29.08 613.378 29.976C611.97 30.8293 610.86 31.9813 610.05 33.432C609.239 34.8827 608.834 36.5253 608.834 38.36C608.834 40.152 609.239 41.7947 610.05 43.288C610.86 44.7387 611.97 45.8907 613.378 46.744C614.786 47.5973 616.343 48.024 618.05 48.024ZM641.231 55V21.656H649.999V24.408C652.516 22.1467 655.631 21.016 659.343 21.016C661.946 21.016 664.228 21.592 666.191 22.744C668.196 23.8533 669.754 25.4107 670.863 27.416C671.972 29.3787 672.527 31.6827 672.527 34.328V55H663.759V35.608C663.759 33.432 663.14 31.7253 661.903 30.488C660.666 29.208 658.98 28.568 656.847 28.568C655.354 28.568 654.031 28.8667 652.879 29.464C651.727 30.0187 650.767 30.8293 649.999 31.896V55H641.231Z" fill="white"/>
<path d="M55.2775 11H30.7895L50.7334 54H75.7263L55.2775 11Z" fill="white"/>
<path d="M55.2775 11H30.7895L50.7334 54H75.7263L55.2775 11Z" fill="white"/>
<path d="M55.2775 11H30.7895L50.7334 54H75.7263L55.2775 11Z" stroke="white"/>
<path d="M55.2775 11H30.7895L50.7334 54H75.7263L55.2775 11Z" stroke="white"/>
<path d="M25.488 11H1L20.9438 54H45.9368L25.488 11Z" fill="white"/>
<path d="M25.488 11H1L20.9438 54H45.9368L25.488 11Z" fill="white"/>
<path d="M25.488 11H1L20.9438 54H45.9368L25.488 11Z" stroke="white"/>
<path d="M25.488 11H1L20.9438 54H45.9368L25.488 11Z" stroke="white"/>
</svg>
